C:\GBW_MyPrograms\KinderuniversiteitApp\Resultaten\TymenKool\Model5_v1.mot
version=1
nRows=7
nColumns=31
inDegrees=yes
endheader
                time	         pelvis_tilt	           pelvis_tx	           pelvis_ty	       hip_flexion_r	        knee_angle_r	       ankle_angle_r	       hip_flexion_l	        knee_angle_l	       ankle_angle_l	    lumbar_extension	          arm_flex_r	          arm_flex_l	hamstrings_r/activation	bifemsh_r/activation	glut_max_r/activation	iliopsoas_r/activation	rect_fem_r/activation	  vasti_r/activation	gastroc_r/activation	 soleus_r/activation	tib_ant_r/activation	hamstrings_l/activation	bifemsh_l/activation	glut_max_l/activation	iliopsoas_l/activation	rect_fem_l/activation	  vasti_l/activation	gastroc_l/activation	 soleus_l/activation	tib_ant_l/activation	
          0.00000000	         -0.74416667	          0.00000000	          0.33146379	         41.94999201	        -50.81386984	          5.53384234	          1.83111830	        -51.47785307	        -19.45291838	         -1.81095874	         -6.89048201	         -6.89011671	          0.51429990	          0.47202791	          0.31456915	          0.29158715	          0.40808110	          0.16941644	          0.12333781	          0.05824856	          0.71336344	          0.21901516	          0.70756332	          0.19530345	          0.53411015	          0.35113854	          0.08421998	          0.59992100	          0.50182128	          0.70615921	
          0.00851230	         -0.70135880	          0.01227364	          0.32698778	         40.78960136	        -52.62633581	          6.83940000	          4.08856584	        -55.97078787	        -19.18872341	         -1.64806026	         -7.31009121	         -7.30977448	          0.51310566	          0.42639358	          0.42359360	          0.25898884	          0.36563509	          0.26456226	          0.11625773	          0.05446113	          0.63152346	          0.19467032	          0.65424519	          0.17275974	          0.47931912	          0.42945625	          0.08824957	          0.59332519	          0.48479408	          0.71126367	
          0.01702459	         -0.69823754	          0.02452446	          0.32222772	         39.20809621	        -54.10253098	          9.33779635	          6.31526200	        -59.83297524	        -19.02615993	         -1.44055284	         -7.72022011	         -7.71995529	          0.46095582	          0.37941169	          0.62564260	          0.22898603	          0.33130234	          0.52781077	          0.11237108	          0.07543117	          0.55778556	          0.17234880	          0.60368057	          0.15875347	          0.55224356	          0.62134477	          0.12316229	          0.58774266	          0.46341671	          0.72266927	
          0.02553689	         -0.68472149	          0.03638963	          0.31787827	         37.85343693	        -55.94426724	         11.89818440	          8.50371347	        -63.03012972	        -19.02177835	         -1.35509737	         -7.96040530	         -7.96019050	          0.42570141	          0.34071344	          0.67555980	          0.20565626	          0.31504481	          0.64687364	          0.10693738	          0.07109744	          0.49285180	          0.15273245	          0.66204137	          0.14020746	          0.65961548	          0.73088634	          0.11075613	          0.59006276	          0.46865214	          0.70476305	
          0.03404919	         -0.66823790	          0.04769677	          0.31452405	         36.64117633	        -57.87217634	         14.33148765	         10.95300753	        -66.30449912	        -18.89656584	         -1.42923068	         -7.95980453	         -7.95964374	          0.40177048	          0.30672471	          0.73591803	          0.18342847	          0.28861504	          0.62299916	          0.10173794	          0.06562672	          0.43531434	          0.13538090	          0.69824214	          0.12444497	          0.71652070	          0.81030709	          0.09964854	          0.58951245	          0.45365730	          0.71052937	
          0.04256148	         -0.69658754	          0.05852198	          0.31234723	         35.18777792	        -59.18934583	         16.57172441	         13.93326588	        -69.74733659	        -18.62199237	         -1.57936171	         -7.75901771	         -7.75890989	          0.38346757	          0.27594263	          0.72248201	          0.16448150	          0.28807956	          0.74256200	          0.10526817	          0.06452233	          0.38414053	          0.11980756	          0.75203626	          0.11068955	          0.77236534	          0.86396530	          0.08998468	          0.58808194	          0.43580365	          0.72307429	
          0.05107378	         -0.78318587	          0.06897117	          0.31135744	         33.35740894	        -59.60104955	         18.34040980	         17.56625088	        -73.18025630	        -18.24675753	         -1.75733399	         -7.40536860	         -7.40531594	          0.34914725	          0.24805258	          0.72257785	          0.14731612	          0.33287578	          0.82558070	          0.13874699	          0.07364716	          0.33879884	          0.10593201	          0.76667740	          0.09825998	          0.82587729	          0.90050114	          0.08221676	          0.58538597	          0.41558240	          0.73459558	
